<?xml version="1.0" encoding="utf-8"?>
<!-- Generator: Adobe Illustrator 22.0.0, SVG Export Plug-In . SVG Version: 6.00 Build 0)  -->
<svg version="1.1" id="Layer_1" xmlns="http://www.w3.org/2000/svg" xmlns:xlink="http://www.w3.org/1999/xlink" x="0px" y="0px"
	 viewBox="0 0 192 192" style="enable-background:new 0 0 192 192;" xml:space="preserve">
<style type="text/css">
	.st0{fill:#D782BA;}
	.st1{fill:url(#SVGID_1_);}
	.st2{fill:url(#SVGID_2_);}
	.st3{fill:#050505;}
</style>
<g id="Background">
	
		<image style="overflow:visible;opacity:0.2;enable-background:new    ;" width="808" height="813" xlink:href="C52881F.png"  transform="matrix(0.2385 0 0 0.2385 -0.3637 0.96)">
	</image>
	<g>
		
			<image style="overflow:visible;opacity:0.2;enable-background:new    ;" width="767" height="767" xlink:href="C52881D.png"  transform="matrix(0.2375 0 0 0.2375 4.92 4.92)">
		</image>
		<g>
			<g>
				<circle class="st0" cx="96" cy="96" r="88"/>
			</g>
		</g>
	</g>
</g>
<g id="Layer_12">
	
		<linearGradient id="SVGID_1_" gradientUnits="userSpaceOnUse" x1="104" y1="10" x2="104" y2="10" gradientTransform="matrix(1 0 0 -1 0 194)">
		<stop  offset="0" style="stop-color:#FFFFFF;stop-opacity:0.2"/>
		<stop  offset="1" style="stop-color:#FFFFFF;stop-opacity:0.1"/>
	</linearGradient>
	<path class="st1" d="M104,184"/>
	
		<linearGradient id="SVGID_2_" gradientUnits="userSpaceOnUse" x1="59.225" y1="132.425" x2="157.025" y2="34.625" gradientTransform="matrix(1 0 0 -1 0 194)">
		<stop  offset="0" style="stop-color:#FFFFFF;stop-opacity:0.2"/>
		<stop  offset="1" style="stop-color:#FFFFFF;stop-opacity:0.1"/>
	</linearGradient>
	<polygon class="st2" points="102.4,184 53.2,134.8 53.4,134.3 53.2,133.6 52.6,131.2 52.3,129 52.4,127.8 53,129.2 54.9,130.6 
		56.2,131.1 58.9,131.3 60.7,130.9 61.9,130.1 62.7,128.9 63,127.8 62.9,126.8 61.9,124.8 60.4,123.1 58.2,121.2 54.6,118.4 
		51.2,114.9 48.5,110.8 47.4,108.4 46.1,104 45.8,102 45.6,97.1 46.5,90.4 47.7,86.1 51.9,75.6 55.6,68.4 62.6,58.2 68.8,52 
		77.9,44.9 85.5,41.6 87.2,41.3 90.4,39.9 93.5,39.7 100.3,38.6 110.4,39.5 112.7,40 115.1,41.4 117.8,42.6 118.3,43 119.2,43.6 
		122.4,46 125.1,48.2 183.3,106.4 182.8,110.3 181.5,117.1 179.8,122.9 178,128 172,140.4 165.1,150.5 159.5,156.9 152.9,163.2 
		146.6,168 136,174.4 130.3,177.1 126,178.8 116.8,181.5 112.7,182.3 108.7,183.1 104.4,183.6 	"/>
</g>
<g id="trim_area">
	<g>
		<g>
			<path class="st3" d="M98,85.2c-7.2-10.8-2.9-41.8-9.4-43.7C82.9,39.8,65,51.6,56.2,67.4c-8.8,15.7-19.6,39.2,2.3,54.1
				c12,9.2-3.5,13.6-6.2,6.2c-0.3,15,14.4,15.3,16.6,4.8c1.5-7.4-7.5-22.8-10.2-30.3C51.9,84,72,59.7,72,59.7S54,89,61.2,103.3
				c24.7,36.3,8.2,35.5,1.9,39.8c24.1,1.2,32.4-20.1,33.7-22.9c3.2-8.5,1.2-23.6-6.6-30.9c-1.9-1.7-3.6,0.4-10.1,0s-3-6.5-3-6.5
				s-2.3-1.9-2.3-2.7c-0.1-0.8,2-1.4,2-1.4s-2-1.1-2.2-2c-0.1-0.9,2.2-3.2,2.2-3.2s-3-1.4-3.1-2.8S77,67,80.3,60.2
				c2.4-5.1,2.3-13.6,6.2-15.5c2.3,4-7.2,34.2,8.4,43.9c2.9,1.6,21.3,16,6.2,34.6C117.8,111.5,102.5,91.9,98,85.2z"/>
			<path class="st3" d="M110.3,39.5c7.2,8.5-0.1,40.7,16.9,51.3c23.1,16.4,6.8,38.6,3.5,44.6c5.8-16.7,5.3-25.4,2.6-32.2
				c-2.7-6.8-20-24.8-22.8-33.9c-2.7-9.1-3.6-34.2-16.9-29.6c12.3,15.5,4.8,29.7,21.6,50.9c16.7,21.3,13.3,51.2-0.6,58.1
				c21.8-28.9,2.6-51.5-3-60.4c-3-4.7-9.2-8.6-9.8-19.6c-0.6-11-8.2-29.9-11.2-28.8c7.9,15.7-0.3,37.8,17.4,59
				c12.1,13.3,17.5,42.1-3,56.4c21.5-0.9,33.9-23.8,39.1-38.6c6.9-20.6-12.8-38.4-16.6-45.6C123.5,63.9,121.5,39.7,110.3,39.5z"/>
			<path class="st3" d="M137.9,62.8c-6.9-11-16.5-17.5-20.1-20.2c9.8,17,9.2,24.5,12.8,29.7c3.6,5.2,9.8,6.4,15.8,24.9
				C146.6,94.6,144.9,73.9,137.9,62.8z"/>
			<path class="st3" d="M108.7,51.8c0.5,2.7,2.9,16.7,4.7,19.2c-1.2-17.1,0.4-16.1-1-22.5s-3.9-9.8-12.1-9.9
				C108.5,45.5,108.2,49.1,108.7,51.8z"/>
		</g>
	</g>
</g>
</svg>
